<svg width="17" height="22" viewBox="0 0 17 22" fill="#764EEE" xmlns="http://www.w3.org/2000/svg">
<path d="M13.2326 0H2.88737C1.29525 0 0 1.39727 0 3.11471V20.9703C0 21.301 0.171323 21.6039 0.443897 21.7552C0.716471 21.9066 1.0446 21.8809 1.29398 21.6886L8.05998 16.4752L14.826 21.6886C14.9675 21.7976 15.1342 21.853 15.3017 21.853C15.4296 21.853 15.5581 21.8207 15.6761 21.7551C15.9487 21.6038 16.12 21.3009 16.12 20.9702V3.11471C16.12 1.39727 14.8247 0 13.2326 0ZM14.4833 19.2549L8.53561 14.6721C8.39333 14.5625 8.22663 14.5077 8.05998 14.5077C7.89329 14.5077 7.72663 14.5625 7.58435 14.6721L1.63663 19.255V3.11471C1.63663 2.37076 2.19772 1.76549 2.88737 1.76549H13.2326C13.9222 1.76549 14.4833 2.37076 14.4833 3.11471V19.2549Z" fill="#764EEE"/>
</svg>
