<svg width="157" height="35" viewBox="0 0 157 35" fill="none" xmlns="http://www.w3.org/2000/svg">
<path d="M9.11865 29.7812L15.2271 10.2256H17.9077L17.3804 14.1147L11.1621 34H8.54736L9.11865 29.7812ZM5.00977 10.2256L10.2173 30.001L10.5908 34H7.84424L0.944824 10.2256H5.00977ZM23.7524 29.8472L28.7183 10.2256H32.7612L25.8618 34H23.1372L23.7524 29.8472ZM18.501 10.2256L24.4775 29.4517L25.1587 34H22.5659L16.1719 14.0708L15.6445 10.2256H18.501ZM50.9546 29.9351V17.6963C50.9546 16.7588 50.7642 15.9458 50.3833 15.2573C50.0171 14.5542 49.4604 14.0122 48.7134 13.6313C47.9663 13.2505 47.0435 13.0601 45.9448 13.0601C44.9194 13.0601 44.0186 13.2358 43.2422 13.5874C42.4805 13.939 41.8799 14.4004 41.4404 14.9717C41.0156 15.543 40.8032 16.1582 40.8032 16.8174H36.7383C36.7383 15.9678 36.958 15.1255 37.3975 14.2905C37.8369 13.4556 38.4668 12.7012 39.2871 12.0273C40.1221 11.3389 41.1182 10.7969 42.2754 10.4014C43.4473 9.99121 44.751 9.78613 46.1865 9.78613C47.915 9.78613 49.4385 10.0791 50.7568 10.665C52.0898 11.251 53.1299 12.1372 53.877 13.3237C54.6387 14.4956 55.0195 15.9678 55.0195 17.7402V28.8145C55.0195 29.6055 55.0854 30.4478 55.2173 31.3413C55.3638 32.2349 55.5762 33.0039 55.8545 33.6484V34H51.6138C51.4087 33.5312 51.2476 32.9087 51.1304 32.1323C51.0132 31.3413 50.9546 30.6089 50.9546 29.9351ZM51.6577 19.5859L51.7017 22.4424H47.5928C46.4355 22.4424 45.4028 22.5376 44.4946 22.728C43.5864 22.9038 42.8247 23.1748 42.2095 23.541C41.5942 23.9072 41.1255 24.3687 40.8032 24.9253C40.481 25.4673 40.3198 26.1045 40.3198 26.8369C40.3198 27.584 40.4883 28.2651 40.8252 28.8804C41.1621 29.4956 41.6675 29.9863 42.3413 30.3525C43.0298 30.7041 43.8721 30.8799 44.8682 30.8799C46.1133 30.8799 47.2119 30.6162 48.1641 30.0889C49.1162 29.5615 49.8706 28.917 50.4272 28.1553C50.9985 27.3936 51.3062 26.6538 51.3501 25.936L53.0859 27.8916C52.9834 28.5068 52.7051 29.188 52.251 29.9351C51.7969 30.6821 51.189 31.3999 50.4272 32.0884C49.6802 32.7622 48.7866 33.3262 47.7466 33.7803C46.7212 34.2197 45.564 34.4395 44.2749 34.4395C42.6636 34.4395 41.25 34.1245 40.0342 33.4946C38.833 32.8647 37.8955 32.0225 37.2217 30.9678C36.5625 29.8984 36.2329 28.7046 36.2329 27.3862C36.2329 26.1118 36.4819 24.9912 36.98 24.0244C37.478 23.043 38.1958 22.23 39.1333 21.5854C40.0708 20.9263 41.1987 20.4282 42.5171 20.0913C43.8354 19.7544 45.3076 19.5859 46.9336 19.5859H51.6577ZM71.3672 10.2256V13.3457H58.5132V10.2256H71.3672ZM62.8638 4.44678H66.9287V28.1113C66.9287 28.917 67.0532 29.5249 67.3022 29.9351C67.5513 30.3452 67.8735 30.6162 68.269 30.748C68.6646 30.8799 69.0894 30.9458 69.5435 30.9458C69.8804 30.9458 70.2319 30.9165 70.5981 30.8579C70.979 30.7847 71.2646 30.7261 71.4551 30.6821L71.4771 34C71.1548 34.1025 70.73 34.1978 70.2026 34.2856C69.6899 34.3882 69.0674 34.4395 68.335 34.4395C67.3389 34.4395 66.4233 34.2417 65.5884 33.8462C64.7534 33.4507 64.0869 32.7915 63.5889 31.8687C63.1055 30.9312 62.8638 29.6714 62.8638 28.0894V4.44678ZM85.6494 31.0996C86.6162 31.0996 87.5098 30.9019 88.3301 30.5063C89.1504 30.1108 89.8242 29.5688 90.3516 28.8804C90.8789 28.1772 91.1792 27.3789 91.2524 26.4854H95.1196C95.0464 27.8916 94.5703 29.2026 93.6914 30.4185C92.8271 31.6196 91.6919 32.5938 90.2856 33.3408C88.8794 34.0732 87.334 34.4395 85.6494 34.4395C83.8623 34.4395 82.3022 34.1245 80.9692 33.4946C79.6509 32.8647 78.5522 32.0005 77.6733 30.9019C76.8091 29.8032 76.1572 28.5435 75.7178 27.1226C75.293 25.687 75.0806 24.1709 75.0806 22.5742V21.6514C75.0806 20.0547 75.293 18.5459 75.7178 17.125C76.1572 15.6895 76.8091 14.4224 77.6733 13.3237C78.5522 12.2251 79.6509 11.3608 80.9692 10.731C82.3022 10.1011 83.8623 9.78613 85.6494 9.78613C87.5098 9.78613 89.1357 10.167 90.5273 10.9287C91.9189 11.6758 93.0103 12.7012 93.8013 14.0049C94.6069 15.2939 95.0464 16.7588 95.1196 18.3994H91.2524C91.1792 17.418 90.9009 16.5317 90.4175 15.7407C89.9487 14.9497 89.3042 14.3198 88.4839 13.8511C87.6782 13.3677 86.7334 13.126 85.6494 13.126C84.4043 13.126 83.3569 13.375 82.5073 13.873C81.6724 14.3564 81.0059 15.0156 80.5078 15.8506C80.0244 16.6709 79.6729 17.5864 79.4531 18.5972C79.248 19.5933 79.1455 20.6113 79.1455 21.6514V22.5742C79.1455 23.6143 79.248 24.6396 79.4531 25.6504C79.6582 26.6611 80.0024 27.5767 80.4858 28.397C80.9839 29.2173 81.6504 29.8765 82.4854 30.3745C83.335 30.8579 84.3896 31.0996 85.6494 31.0996ZM103.755 0.25V34H99.6899V0.25H103.755ZM102.788 21.2119L101.096 21.146C101.111 19.52 101.353 18.0186 101.821 16.6416C102.29 15.25 102.949 14.0415 103.799 13.0161C104.648 11.9907 105.659 11.1997 106.831 10.6431C108.018 10.0718 109.329 9.78613 110.764 9.78613C111.936 9.78613 112.991 9.94727 113.928 10.2695C114.866 10.5771 115.664 11.0752 116.323 11.7637C116.997 12.4521 117.51 13.3457 117.861 14.4443C118.213 15.5283 118.389 16.854 118.389 18.4214V34H114.302V18.3774C114.302 17.1323 114.119 16.1362 113.752 15.3892C113.386 14.6274 112.852 14.0781 112.148 13.7412C111.445 13.3896 110.581 13.2139 109.556 13.2139C108.545 13.2139 107.622 13.4263 106.787 13.8511C105.967 14.2759 105.256 14.8618 104.656 15.6089C104.07 16.356 103.608 17.2129 103.271 18.1797C102.949 19.1318 102.788 20.1426 102.788 21.2119ZM156.182 16.8394V20.6626H134.253V16.8394H156.182ZM147.261 7.50098V30.792H143.196V7.50098H147.261Z" fill="#312DD1"/>
</svg>
